<svg xmlns="http://www.w3.org/2000/svg" version="1.1" xmlns:xlink="http://www.w3.org/1999/xlink" xmlns:svgjs="http://svgjs.dev/svgjs" width="100" height="65"><svg width="100" height="65" viewBox="0 0 100 65" fill="none" xmlns="http://www.w3.org/2000/svg">
<g clip-path="url(#clip0_268_3330)">
<path d="M64.5959 21.6932C64.5959 24.3451 64.5903 26.997 64.6031 29.6497C64.6046 29.973 64.5074 30.0565 64.18 30.0549C61.8583 30.0418 59.5359 30.0395 57.2142 30.0565C56.8517 30.0588 56.7792 29.949 56.78 29.6195C56.7904 24.779 56.7944 19.9384 56.784 15.0978C56.7792 12.7452 55.8773 10.7677 53.9724 9.29673C51.5185 7.40195 48.7745 7.09028 45.9828 8.3942C43.2222 9.68419 41.7522 11.9417 41.7283 14.947C41.6893 19.8518 41.7172 24.7573 41.7267 29.6621C41.7267 29.9621 41.6478 30.0573 41.3292 30.0557C38.9804 30.0433 36.6325 30.0441 34.2837 30.0557C33.9786 30.0573 33.8782 29.9869 33.879 29.6729C33.8901 24.7681 33.8973 19.8626 33.8846 14.9578C33.8782 12.5457 32.8783 10.5558 30.8785 9.14747C28.239 7.28827 25.3795 7.08642 22.5424 8.66797C20.1562 9.99741 18.8671 12.1025 18.8042 14.7939C18.738 17.5989 18.7851 20.4063 18.7835 23.2129C18.7827 25.3629 18.7779 27.5128 18.789 29.6628C18.7906 29.9559 18.7229 30.0596 18.3971 30.058C16.0483 30.0441 13.7004 30.0441 11.3516 30.058C11.013 30.0603 10.9357 29.959 10.9365 29.6443C10.9469 24.765 10.9302 19.8858 10.9469 15.0066C10.9708 8.07324 15.7097 2.09736 22.6611 0.494152C28.3943 -0.828323 33.3898 0.664295 37.528 4.7601C37.7463 4.97664 37.8467 4.9952 38.0729 4.76319C42.8302 -0.128417 50.1114 -1.4331 56.2382 1.70449C61.5954 4.44765 64.3569 8.90617 64.5776 14.7831C64.6644 17.0846 64.5919 19.3916 64.5919 21.6963H64.5943L64.5959 21.6932Z" fill="#94010E"></path>
<path d="M64.5297 43.1877C64.5297 45.4529 64.5313 47.7189 64.5297 49.9841C64.5257 53.496 63.4095 56.6382 61.1492 59.3799C57.6978 63.5661 53.1628 65.3704 47.7029 64.9366C43.6436 64.6141 40.2432 62.8864 37.6068 59.8887C35.2294 57.185 33.9116 54.0304 33.8367 50.4334C33.8303 50.145 33.9068 50.0591 34.2088 50.0607C36.544 50.0723 38.8784 50.073 41.2136 50.0607C41.5394 50.0591 41.6343 50.1504 41.6566 50.4667C41.9968 55.3506 46.8098 58.5021 51.5957 56.9847C54.5523 56.0474 56.6334 53.3336 56.7154 50.2888C56.7369 49.5038 56.7099 48.7181 56.729 47.9339C56.7378 47.5727 56.6358 47.5874 56.3569 47.7444C52.6553 49.8317 48.7044 50.4164 44.5845 49.3097C39.3413 47.9014 35.8301 44.606 33.9937 39.6456C33.475 38.2442 33.2471 36.7802 33.2065 35.2899C33.1993 35.0247 33.275 34.9334 33.5587 34.9342C35.9337 34.9435 38.3079 34.9435 40.683 34.9342C40.9539 34.9334 41.008 35.0293 41.0248 35.2683C41.2208 38.0478 42.5688 40.1584 45.1167 41.4182C47.7372 42.7136 50.3727 42.5434 52.8187 40.9464C54.8439 39.624 55.9187 37.7106 56.0797 35.3394C56.1012 35.0239 56.1856 34.9303 56.5147 34.9319C59.0483 34.9466 61.5826 34.9489 64.1162 34.9388C64.4453 34.9373 64.5409 35.0262 64.5393 35.3487C64.5265 37.962 64.5321 40.5752 64.5321 43.1884L64.5297 43.1877Z" fill="#94010E"></path>
<path d="M99.8818 21.9275C99.8818 24.5021 99.8771 27.0774 99.889 29.652C99.8906 29.9544 99.8085 30.0418 99.4922 30.0402C96.9451 30.0271 94.3972 30.0271 91.8501 30.0364C91.5393 30.0379 91.4262 29.9768 91.4023 29.6443C91.1474 26.069 88.5349 23.3088 84.9369 22.786C80.6561 22.1634 76.6207 25.335 76.3809 29.5267C76.3586 29.9126 76.2677 30.0449 75.8407 30.0402C73.5453 30.0178 71.25 30.0201 68.9546 30.0387C68.5754 30.0418 68.4901 29.9273 68.5068 29.5824C68.714 25.3196 70.3632 21.67 73.7007 18.892C78.5926 14.8194 84.1083 14.0437 90.0837 16.3855C90.6741 16.6167 91.231 16.9207 91.7768 17.2409C91.9114 17.3197 92.0548 17.4125 92.0492 17.1411C92.0206 15.6531 92.164 14.1597 91.6588 12.7019C90.5211 9.41892 87.0681 7.30606 83.5315 7.76931C79.9271 8.24184 77.1848 11.118 76.9983 14.6454C76.9808 14.9741 76.8748 15.0437 76.5577 15.0421C74.2225 15.0298 71.8873 15.029 69.5521 15.0421C69.2247 15.0437 69.1299 14.9656 69.1347 14.6384C69.2478 7.66258 74.7731 1.37426 81.8552 0.336385C88.5078 -0.63807 93.7518 1.68516 97.5012 7.08023C99.1026 9.38412 99.8412 12.0005 99.8747 14.7823C99.9033 17.1635 99.8802 19.5455 99.8802 21.9275H99.8826H99.8818Z" fill="#94010E"></path>
<path d="M69.2497 43.2341C69.2497 40.5822 69.2553 37.931 69.2417 35.2791C69.2401 34.9319 69.327 34.8213 69.7022 34.8244C72.0103 34.8414 74.3192 34.8414 76.6274 34.8244C76.9978 34.8221 77.0902 34.9272 77.0894 35.2784C77.0783 40.1444 77.0767 45.0098 77.0847 49.8758C77.0887 52.421 78.1347 54.4929 80.2835 55.9476C82.7191 57.5965 85.3634 57.7914 88.0078 56.4967C90.6361 55.2091 92.0862 53.0428 92.1332 50.179C92.2097 45.4429 92.1547 40.7051 92.1595 35.9682C92.1595 35.6101 92.0025 35.1453 92.2216 34.9203C92.4622 34.6728 92.9514 34.8391 93.3307 34.8375C95.4006 34.829 97.4696 34.8399 99.5395 34.8267C99.8678 34.8244 100.001 34.8808 100 35.2428C99.9873 40.1468 99.9984 45.0515 99.9881 49.9555C99.9809 53.5107 98.832 56.6908 96.4976 59.4309C92.7283 63.857 87.8476 65.5607 82.0459 64.7293C78.5228 64.2243 75.5438 62.6002 73.2006 60.0032C70.6392 57.1649 69.2624 53.8402 69.2513 50.0305C69.2449 47.7653 69.2497 45.4993 69.2497 43.2341Z" fill="#94010E"></path>
<path d="M30.8277 55.7419C30.8277 58.3683 30.8197 60.9954 30.8372 63.6218C30.8396 64.0023 30.7233 64.0851 30.348 64.082C28.0128 64.065 25.6776 64.0658 23.3416 64.082C22.9935 64.0843 22.8987 64.0016 22.8995 63.6566C22.9114 58.7511 22.9409 53.8456 22.8939 48.94C22.866 46.0043 21.4327 43.8079 18.7557 42.4669C13.8487 40.0091 7.92582 43.48 7.85093 48.8434C7.80552 52.0745 7.84058 55.3065 7.83978 58.5384C7.83978 60.2507 7.835 61.9629 7.84456 63.676C7.84615 63.9552 7.80313 64.0835 7.46133 64.0812C5.09985 64.0658 2.73756 64.0673 0.375272 64.0804C0.0701272 64.082 1.55114e-05 63.9931 0.000812235 63.7092C0.0095762 58.7264 -0.0167157 53.7435 0.01595 48.7614C0.0549895 42.7082 4.05454 37.2033 9.89931 35.0626C10.9351 34.6836 12.009 34.4702 13.083 34.2312C14.3873 33.9412 15.6987 33.9071 16.9933 34.1028C22.7298 34.9713 26.9532 37.8444 29.4684 43.0067C30.458 45.0384 30.8229 47.159 30.8269 49.3693C30.8308 51.4937 30.8277 53.6182 30.8277 55.7427V55.7419Z" fill="#94010E"></path>
</g>
<defs>
<clipPath id="SvgjsClipPath1047">
<rect width="100" height="65" fill="white"></rect>
</clipPath>
</defs>
</svg><style>@media (prefers-color-scheme: light) { :root { filter: none; } }
@media (prefers-color-scheme: dark) { :root { filter: none; } }
</style></svg>